<svg width="2105" height="2230" viewBox="0 0 2105 2230" fill="none" xmlns="http://www.w3.org/2000/svg">
<path fill-rule="evenodd" clip-rule="evenodd" d="M1756.86 1498.87L1461.51 2229.87L732.035 1935.15L989.918 1296.86C1010.61 1245.66 1068.89 1220.92 1120.1 1241.61L1756.86 1498.87L1756.86 1498.87ZM542.27 1006.89C743.71 1088.27 841.032 1317.55 759.645 1518.99L759.029 1520.51C677.642 1721.95 448.366 1819.28 246.927 1737.89C45.4865 1656.5 -51.8343 1427.22 29.552 1225.79L30.1682 1224.26C111.555 1022.82 340.831 925.5 542.27 1006.89V1006.89ZM1252.97 294.852L995.082 933.135C974.393 984.343 916.111 1009.08 864.903 988.392L228.145 731.125L523.489 0.124268L1252.97 294.852V294.852ZM2104.34 638.828L1808.99 1369.83L1172.23 1112.56C1121.03 1091.87 1096.29 1033.59 1116.98 982.383L1374.86 344.1L2104.34 638.828Z" fill="url(#paint0_linear_54_7)"/>
<defs>
<linearGradient id="paint0_linear_54_7" x1="533.59" y1="4.20557" x2="1465.66" y2="2219.8" gradientUnits="userSpaceOnUse">
<stop stop-color="#FF8F71"/>
<stop offset="1" stop-color="#FF3E55"/>
</linearGradient>
</defs>
</svg>
