<svg width="889" height="786" viewBox="0 0 889 786" fill="none" xmlns="http://www.w3.org/2000/svg">
<g clip-path="url(#clip0_275_380)">
<path opacity="0.5" d="M724.5 394C724.5 577.635 575.635 726.5 392 726.5C208.365 726.5 59.5 577.635 59.5 394V392C59.5 208.365 208.365 59.5 392 59.5C575.635 59.5 724.5 208.365 724.5 392V394Z" stroke="#2D2E40"/>
<path opacity="0.25" d="M783.5 394C783.5 610.219 608.219 785.5 392 785.5C175.781 785.5 0.5 610.219 0.5 394V392C0.5 175.781 175.781 0.5 392 0.5C608.219 0.5 783.5 175.781 783.5 392V394Z" stroke="#2D2E40"/>
<path opacity="0.08" d="M667 394C667 545.878 543.878 669 392 669C240.122 669 117 545.878 117 394V392C117 240.122 240.122 117 392 117C543.878 117 667 240.122 667 392V394Z" fill="#2D2E40"/>
<g filter="url(#filter0_d_275_380)">
<path d="M798 208H284C277.373 208 272 213.373 272 220V564C272 570.627 277.373 576 284 576H798C804.627 576 810 570.627 810 564V220C810 213.373 804.627 208 798 208Z" fill="#535353"/>
<path d="M797 211H285C279.477 211 275 215.477 275 221V563C275 568.523 279.477 573 285 573H797C802.523 573 807 568.523 807 563V221C807 215.477 802.523 211 797 211Z" fill="#1D1D25"/>
<mask id="mask0_275_380" style="mask-type:alpha" maskUnits="userSpaceOnUse" x="289" y="224" width="506" height="336">
<path d="M792 224H292C290.343 224 289 225.343 289 227V556.872C289 558.529 290.343 559.872 292 559.872H792C793.657 559.872 795 558.529 795 556.872V227C795 225.343 793.657 224 792 224Z" fill="white"/>
</mask>
<g mask="url(#mask0_275_380)">
<path d="M792 224H292C290.343 224 289 225.343 289 227V556.872C289 558.529 290.343 559.872 292 559.872H792C793.657 559.872 795 558.529 795 556.872V227C795 225.343 793.657 224 792 224Z" fill="url(#paint0_linear_275_380)"/>
<path d="M791.675 284.293H291.675C290.018 284.293 288.675 285.636 288.675 287.293V557.131C288.675 558.788 290.018 560.131 291.675 560.131H791.675C793.332 560.131 794.675 558.788 794.675 557.131V287.293C794.675 285.636 793.332 284.293 791.675 284.293Z" fill="#F9F6F6"/>
<path d="M464.121 261.46H363.475C361.818 261.46 360.475 262.803 360.475 264.46V515.001C360.475 516.658 361.818 518.001 363.475 518.001H464.121C465.778 518.001 467.121 516.658 467.121 515.001V264.46C467.121 262.803 465.778 261.46 464.121 261.46Z" fill="white"/>
<path d="M720.524 261.46H488.273C486.616 261.46 485.273 262.803 485.273 264.46V515.001C485.273 516.658 486.616 518.001 488.273 518.001H720.524C722.181 518.001 723.524 516.658 723.524 515.001V264.46C723.524 262.803 722.181 261.46 720.524 261.46Z" fill="white"/>
<path d="M710.314 275.082H498.484C496.827 275.082 495.484 276.425 495.484 278.082V332.244C495.484 333.901 496.827 335.244 498.484 335.244H710.314C711.971 335.244 713.314 333.901 713.314 332.244V278.082C713.314 276.425 711.971 275.082 710.314 275.082Z" fill="#E7E7E7"/>
<path d="M557.152 347.73H498.484C496.827 347.73 495.484 349.073 495.484 350.73V404.892C495.484 406.549 496.827 407.892 498.484 407.892H557.152C558.809 407.892 560.152 406.549 560.152 404.892V350.73C560.152 349.073 558.809 347.73 557.152 347.73Z" fill="#E7E7E7"/>
<path d="M710.314 347.73H579.036C577.379 347.73 576.036 349.073 576.036 350.73V404.892C576.036 406.549 577.379 407.892 579.036 407.892H710.314C711.971 407.892 713.314 406.549 713.314 404.892V350.73C713.314 349.073 711.971 347.73 710.314 347.73Z" fill="#E7E7E7"/>
</g>
<g opacity="0.098">
<path opacity="0.098" d="M551.1 192H540.5C539.672 192 539 192.672 539 193.5C539 194.328 539.672 195 540.5 195H551.1C551.928 195 552.6 194.328 552.6 193.5C552.6 192.672 551.928 192 551.1 192Z" fill="#4A5166"/>
<path opacity="0.098" d="M557.5 192H557.3C556.472 192 555.8 192.672 555.8 193.5C555.8 194.328 556.472 195 557.3 195H557.5C558.328 195 559 194.328 559 193.5C559 192.672 558.328 192 557.5 192Z" fill="#4A5166"/>
</g>
<mask id="mask1_275_380" style="mask-type:alpha" maskUnits="userSpaceOnUse" x="190" y="572" width="699" height="18">
<path d="M193 572H885.9C886.696 572 887.459 572.316 888.021 572.879C888.584 573.441 888.9 574.204 888.9 575V589.105H190V575C190 574.204 190.316 573.441 190.879 572.879C191.441 572.316 192.204 572 193 572V572Z" fill="white"/>
</mask>
<g mask="url(#mask1_275_380)">
<path d="M193 572H885.9C886.696 572 887.459 572.316 888.021 572.879C888.584 573.441 888.9 574.204 888.9 575V589.105H190V575C190 574.204 190.316 573.441 190.879 572.879C191.441 572.316 192.204 572 193 572V572Z" fill="#52526F"/>
<path d="M586.527 530.092H492.371C486.848 530.092 482.371 534.569 482.371 540.092V572.263C482.371 577.786 486.848 582.263 492.371 582.263H586.527C592.05 582.263 596.527 577.786 596.527 572.263V540.092C596.527 534.569 592.05 530.092 586.527 530.092Z" fill="#2F2F47"/>
</g>
<path d="M190 589H889C889 590.591 888.368 592.117 887.243 593.243C886.117 594.368 884.591 595 883 595H196C194.409 595 192.883 594.368 191.757 593.243C190.632 592.117 190 590.591 190 589V589Z" fill="#393A56"/>
</g>
</g>
<defs>
<filter id="filter0_d_275_380" x="150" y="172" width="779" height="483" filterUnits="userSpaceOnUse" color-interpolation-filters="sRGB">
<feFlood flood-opacity="0" result="BackgroundImageFix"/>
<feColorMatrix in="SourceAlpha" type="matrix" values="0 0 0 0 0 0 0 0 0 0 0 0 0 0 0 0 0 0 127 0" result="hardAlpha"/>
<feOffset dy="20"/>
<feGaussianBlur stdDeviation="20"/>
<feColorMatrix type="matrix" values="0 0 0 0 0.421822 0 0 0 0 0.554338 0 0 0 0 0.89371 0 0 0 0.243444 0"/>
<feBlend mode="normal" in2="BackgroundImageFix" result="effect1_dropShadow_275_380"/>
<feBlend mode="normal" in="SourceGraphic" in2="effect1_dropShadow_275_380" result="shape"/>
</filter>
<linearGradient id="paint0_linear_275_380" x1="289" y1="317.943" x2="708.429" y2="596.35" gradientUnits="userSpaceOnUse">
<stop stop-color="#FF8F71"/>
<stop offset="1" stop-color="#FF3E55"/>
</linearGradient>
<clipPath id="clip0_275_380">
<rect width="888.5" height="785" fill="white" transform="translate(0.5 0.5)"/>
</clipPath>
</defs>
</svg>
