<svg width="472" height="499" viewBox="0 0 472 499" fill="none" xmlns="http://www.w3.org/2000/svg">
<path d="M190.606 5.052H30.6064C18.4561 5.052 8.60645 14.9017 8.60645 27.052V406.052C8.60645 418.202 18.4561 428.052 30.6064 428.052H190.606C202.756 428.052 212.606 418.202 212.606 406.052V27.052C212.606 14.9017 202.756 5.052 190.606 5.052Z" fill="url(#paint0_linear_241_221)"/>
<path d="M65.6064 227.612V202.334H74.9224C76.6564 202.334 78.1544 202.601 79.4184 203.134C80.6824 203.669 81.6574 204.428 82.3434 205.414C83.0294 206.398 83.3734 207.555 83.3734 208.884C83.3734 210.094 83.1074 211.157 82.5784 212.071C82.0484 212.985 81.2724 213.731 80.3384 214.225C81.6384 214.723 82.6504 215.512 83.3724 216.592C84.0944 217.672 84.4554 218.948 84.4554 220.42C84.4554 221.891 84.0704 223.16 83.3004 224.229C82.5304 225.297 81.4464 226.128 80.0504 226.721C78.6544 227.314 77.0054 227.611 75.1034 227.611H65.6064V227.612ZM70.8064 206.712V212.516H74.3454C75.5254 212.516 76.4334 212.273 77.0714 211.786C77.7094 211.299 78.0284 210.581 78.0284 209.632C78.0284 208.682 77.7084 207.959 77.0714 207.46C76.4334 206.962 75.5244 206.713 74.3454 206.713H70.8054L70.8064 206.712ZM70.8064 223.232H74.8504C76.1984 223.232 77.2404 222.947 77.9744 222.378C78.7084 221.808 79.0754 220.989 79.0754 219.921C79.0754 218.853 78.7084 218.034 77.9744 217.465C77.2394 216.895 76.1984 216.61 74.8504 216.61H70.8064V223.232ZM87.6694 227.612V201.052H92.7254V227.612H87.6694ZM105.941 228.145C104.521 228.145 103.209 227.896 102.005 227.398C100.83 226.919 99.7624 226.211 98.8634 225.315C97.9664 224.415 97.2604 223.343 96.7874 222.164C96.2934 220.954 96.0474 219.636 96.0474 218.212C96.0474 216.788 96.2994 215.477 96.8054 214.278C97.2974 213.1 98.0144 212.03 98.9174 211.128C99.8254 210.222 100.906 209.508 102.095 209.027C103.311 208.528 104.641 208.279 106.085 208.279C107.505 208.279 108.818 208.529 110.021 209.027C111.196 209.506 112.264 210.214 113.163 211.11C114.057 212.005 114.763 213.071 115.239 214.243C115.733 215.441 115.979 216.753 115.979 218.177C115.979 219.601 115.727 220.918 115.221 222.128C114.733 223.313 114.015 224.39 113.109 225.297C112.201 226.202 111.12 226.916 109.931 227.397C108.715 227.896 107.385 228.145 105.941 228.145ZM106.013 223.659C106.928 223.659 107.746 223.422 108.469 222.947C109.191 222.473 109.762 221.826 110.184 221.007C110.605 220.188 110.816 219.257 110.816 218.212C110.816 217.168 110.605 216.236 110.184 215.417C109.762 214.599 109.191 213.952 108.469 213.477C107.746 213.002 106.928 212.765 106.013 212.765C105.098 212.765 104.28 213.002 103.558 213.477C102.835 213.952 102.264 214.599 101.842 215.417C101.422 216.237 101.21 217.167 101.21 218.212C101.21 219.257 101.421 220.188 101.842 221.007C102.264 221.826 102.835 222.473 103.558 222.947C104.28 223.422 105.098 223.659 106.013 223.659ZM127.137 227.077C125.974 227.085 124.822 226.843 123.761 226.365C122.727 225.9 121.799 225.227 121.035 224.389C120.252 223.527 119.639 222.524 119.229 221.434C118.796 220.307 118.579 219.09 118.579 217.785C118.579 216.432 118.802 215.18 119.247 214.029C119.67 212.913 120.308 211.891 121.125 211.021C121.923 210.172 122.88 209.489 123.942 209.009C125.012 208.523 126.174 208.279 127.426 208.279C128.654 208.279 129.761 208.523 130.748 209.009C131.734 209.494 132.579 210.223 133.204 211.127L133.312 208.813H137.97V225.368C137.97 226.816 137.736 228.133 137.266 229.32C136.821 230.47 136.138 231.513 135.262 232.382C134.38 233.246 133.329 233.919 132.175 234.358C130.983 234.821 129.665 235.052 128.221 235.052C126.801 235.052 125.524 234.832 124.393 234.393C123.298 233.977 122.293 233.354 121.432 232.56C120.596 231.786 119.921 230.854 119.446 229.818L124.285 228.644C124.701 229.315 125.278 229.872 125.964 230.264C126.65 230.655 127.426 230.851 128.293 230.851C129.232 230.851 130.044 230.643 130.73 230.228C131.419 229.809 131.976 229.204 132.337 228.483C132.722 227.736 132.915 226.863 132.915 225.867V224.336C132.261 225.193 131.413 225.882 130.441 226.347C129.442 226.834 128.341 227.077 127.137 227.077ZM128.365 222.662C129.255 222.662 130.045 222.442 130.73 222.004C131.42 221.56 131.986 220.948 132.373 220.224C132.783 219.476 132.987 218.628 132.987 217.678C132.987 216.728 132.783 215.88 132.373 215.133C131.986 214.409 131.42 213.797 130.73 213.353C130.044 212.913 129.256 212.693 128.365 212.693C127.475 212.693 126.686 212.913 126 213.353C125.31 213.797 124.744 214.409 124.357 215.133C123.947 215.88 123.743 216.729 123.743 217.678C123.743 218.628 123.948 219.476 124.357 220.224C124.767 220.971 125.314 221.564 126 222.004C126.686 222.443 127.474 222.662 128.365 222.662ZM142.015 227.612V208.812H146.673L146.853 211.66C147.335 210.664 147.985 209.898 148.803 209.364C149.622 208.83 150.585 208.563 151.693 208.563C152.029 208.563 152.366 208.593 152.703 208.652C153.04 208.712 153.341 208.789 153.606 208.883L153.064 213.797C152.801 213.702 152.529 213.637 152.252 213.601C151.97 213.565 151.687 213.547 151.403 213.547C150.007 213.547 148.936 213.969 148.19 214.811C147.443 215.654 147.07 216.846 147.07 218.389V227.61H142.015V227.612Z" fill="white"/>
<path d="M205.048 401.946C205.048 412.533 197.233 421.654 186.65 421.654H35.7325C25.1485 421.654 15.9465 412.533 15.9465 401.946V30.111C15.9465 19.524 25.1485 11.784 35.7325 11.784H53.1795C56.8685 11.784 58.2305 11.362 58.4545 16.039C58.5705 18.469 59.4615 20.357 60.8895 21.92C62.3155 23.454 64.2795 24.714 66.5355 25.421C68.0665 25.901 69.7715 26.335 71.3965 26.335H151.147C152.773 26.335 154.477 25.801 156.008 25.322C158.266 24.615 160.228 23.435 161.655 21.93C163.083 20.395 163.974 18.586 164.089 16.157C164.312 11.481 165.676 11.784 169.365 11.784H186.65C197.233 11.784 205.048 19.524 205.048 30.111V401.946ZM99.4535 13.602H123.09C124.094 13.602 124.909 14.224 124.909 15.117C124.909 16.01 124.094 16.633 123.09 16.633H99.4535C98.4485 16.633 97.6355 16.01 97.6355 15.117C97.6355 14.224 98.4485 13.602 99.4535 13.602ZM135.516 14.124C135.516 14.8276 135.236 15.5024 134.739 16C134.241 16.4975 133.567 16.777 132.863 16.777C132.159 16.777 131.485 16.4975 130.987 16C130.49 15.5024 130.21 14.8276 130.21 14.124C130.21 13.4204 130.49 12.7456 130.987 12.248C131.485 11.7505 132.159 11.471 132.863 11.471C133.567 11.471 134.241 11.7505 134.739 12.248C135.236 12.7456 135.516 13.4204 135.516 14.124ZM216.564 99.092V31.306C216.564 14.162 202.671 0.264038 185.532 0.264038H34.7545C17.0775 0.264038 2.61246 14.734 2.61246 32.419V57.258C2.13016 57.258 1.66766 57.4495 1.32656 57.7904C0.985457 58.1313 0.793757 58.5937 0.793457 59.076V71.809C0.793457 72.2915 0.985057 72.7543 1.32616 73.0956C1.66726 73.4369 2.12996 73.6287 2.61246 73.629V88.786C2.12996 88.786 1.66726 88.978 1.32616 89.319C0.985057 89.661 0.793457 90.123 0.793457 90.606V117.89C0.793957 118.372 0.985859 118.834 1.32686 119.175C1.66796 119.516 2.13026 119.708 2.61246 119.708V128.803C2.13026 128.803 1.66796 128.995 1.32686 129.336C0.985859 129.677 0.793957 130.139 0.793457 130.621V157.906C0.793457 158.389 0.985057 158.851 1.32616 159.193C1.66726 159.534 2.12996 159.726 2.61246 159.726V403.342C2.61246 421.082 17.1215 435.599 34.8555 435.599H185.532C202.599 435.599 216.564 421.629 216.564 404.556V149.416H217.169C217.408 149.416 217.645 149.369 217.865 149.278C218.086 149.186 218.287 149.052 218.456 148.884C218.625 148.715 218.759 148.514 218.85 148.293C218.942 148.073 218.989 147.836 218.989 147.597V100.912C218.989 99.907 218.175 99.092 217.169 99.092H216.564Z" fill="black"/>
<path d="M205.048 401.946C205.048 412.533 197.233 421.654 186.65 421.654H35.7325C25.1485 421.654 15.9465 412.533 15.9465 401.946V30.111C15.9465 19.524 25.1485 11.784 35.7325 11.784H53.1795C56.8685 11.784 58.2305 11.362 58.4545 16.039C58.5705 18.469 59.4615 20.357 60.8895 21.92C62.3155 23.454 64.2795 24.714 66.5355 25.421C68.0665 25.901 69.7715 26.335 71.3965 26.335H151.147C152.773 26.335 154.477 25.801 156.008 25.322C158.266 24.615 160.228 23.435 161.655 21.93C163.083 20.395 163.974 18.586 164.089 16.157C164.312 11.481 165.676 11.784 169.365 11.784H186.65C197.233 11.784 205.048 19.524 205.048 30.111V401.946ZM99.4535 13.602H123.09C124.094 13.602 124.909 14.224 124.909 15.117C124.909 16.01 124.094 16.633 123.09 16.633H99.4535C98.4485 16.633 97.6355 16.01 97.6355 15.117C97.6355 14.224 98.4485 13.602 99.4535 13.602ZM135.516 14.124C135.516 14.8276 135.236 15.5024 134.739 16C134.241 16.4975 133.567 16.777 132.863 16.777C132.159 16.777 131.485 16.4975 130.987 16C130.49 15.5024 130.21 14.8276 130.21 14.124C130.21 13.4204 130.49 12.7456 130.987 12.248C131.485 11.7505 132.159 11.471 132.863 11.471C133.567 11.471 134.241 11.7505 134.739 12.248C135.236 12.7456 135.516 13.4204 135.516 14.124ZM216.564 99.092V31.306C216.564 14.162 202.671 0.264038 185.532 0.264038H34.7545C17.0775 0.264038 2.61246 14.734 2.61246 32.419V57.258C2.13016 57.258 1.66766 57.4495 1.32656 57.7904C0.985457 58.1313 0.793757 58.5937 0.793457 59.076V71.809C0.793457 72.2915 0.985057 72.7543 1.32616 73.0956C1.66726 73.4369 2.12996 73.6287 2.61246 73.629V88.786C2.12996 88.786 1.66726 88.978 1.32616 89.319C0.985057 89.661 0.793457 90.123 0.793457 90.606V117.89C0.793957 118.372 0.985859 118.834 1.32686 119.175C1.66796 119.516 2.13026 119.708 2.61246 119.708V128.803C2.13026 128.803 1.66796 128.995 1.32686 129.336C0.985859 129.677 0.793957 130.139 0.793457 130.621V157.906C0.793457 158.389 0.985057 158.851 1.32616 159.193C1.66726 159.534 2.12996 159.726 2.61246 159.726V403.342C2.61246 421.082 17.1215 435.599 34.8555 435.599H185.532C202.599 435.599 216.564 421.629 216.564 404.556V149.416H217.169C217.408 149.416 217.645 149.369 217.865 149.278C218.086 149.186 218.287 149.052 218.456 148.884C218.625 148.715 218.759 148.514 218.85 148.293C218.942 148.073 218.989 147.836 218.989 147.597V100.912C218.989 99.907 218.175 99.092 217.169 99.092H216.564Z" fill="#1D1D25"/>
<path fill-rule="evenodd" clip-rule="evenodd" d="M123.091 13.602H99.4535C98.4485 13.602 97.6345 14.226 97.6345 15.119C97.6345 16.011 98.4485 16.634 99.4545 16.634H123.091C124.096 16.634 124.911 16.011 124.911 15.119C124.911 14.226 124.096 13.602 123.091 13.602ZM132.865 11.472C132.161 11.4723 131.487 11.752 130.989 12.2498C130.492 12.7475 130.213 13.4224 130.213 14.126C130.213 14.8296 130.493 15.5043 130.991 16.0017C131.489 16.499 132.163 16.7783 132.867 16.778C133.571 16.7777 134.245 16.498 134.743 16.0003C135.24 15.5025 135.519 14.8276 135.519 14.124C135.519 13.4204 135.239 12.7457 134.741 12.2483C134.244 11.751 133.569 11.4717 132.865 11.472Z" fill="black"/>
<path d="M443.606 68.052H283.606C271.456 68.052 261.606 77.9017 261.606 90.052V469.052C261.606 481.202 271.456 491.052 283.606 491.052H443.606C455.756 491.052 465.606 481.202 465.606 469.052V90.052C465.606 77.9017 455.756 68.052 443.606 68.052Z" fill="url(#paint1_linear_241_221)"/>
<path d="M435.941 74.052H290.606C278.456 74.052 268.606 83.902 268.606 96.052V466.373C268.606 478.523 278.456 488.373 290.606 488.373H435.941C448.091 488.373 457.941 478.523 457.941 466.373V96.052C457.941 83.902 448.091 74.052 435.941 74.052Z" fill="white"/>
<path d="M435.941 74.052H290.606C278.456 74.052 268.606 83.902 268.606 96.052V125.321C268.606 137.471 278.456 147.321 290.606 147.321H435.941C448.091 147.321 457.941 137.471 457.941 125.321V96.052C457.941 83.902 448.091 74.052 435.941 74.052Z" fill="url(#paint2_linear_241_221)"/>
<g filter="url(#filter0_d_241_221)">
<path d="M442.598 120.282H283.949C281.74 120.282 279.949 122.073 279.949 124.282V174.723C279.949 176.932 281.74 178.723 283.949 178.723H442.598C444.807 178.723 446.598 176.932 446.598 174.723V124.282C446.598 122.073 444.807 120.282 442.598 120.282Z" fill="black"/>
</g>
<path d="M442.598 120.282H283.949C281.74 120.282 279.949 122.073 279.949 124.282V174.723C279.949 176.932 281.74 178.723 283.949 178.723H442.598C444.807 178.723 446.598 176.932 446.598 174.723V124.282C446.598 122.073 444.807 120.282 442.598 120.282Z" fill="white"/>
<g filter="url(#filter1_d_241_221)">
<path d="M442.598 192.679H283.949C281.74 192.679 279.949 194.47 279.949 196.679V247.12C279.949 249.329 281.74 251.12 283.949 251.12H442.598C444.807 251.12 446.598 249.329 446.598 247.12V196.679C446.598 194.47 444.807 192.679 442.598 192.679Z" fill="black"/>
</g>
<path d="M442.598 192.679H283.949C281.74 192.679 279.949 194.47 279.949 196.679V247.12C279.949 249.329 281.74 251.12 283.949 251.12H442.598C444.807 251.12 446.598 249.329 446.598 247.12V196.679C446.598 194.47 444.807 192.679 442.598 192.679Z" fill="white"/>
<g filter="url(#filter2_d_241_221)">
<path d="M442.598 265.076H283.949C281.74 265.076 279.949 266.867 279.949 269.076V319.517C279.949 321.726 281.74 323.517 283.949 323.517H442.598C444.807 323.517 446.598 321.726 446.598 319.517V269.076C446.598 266.867 444.807 265.076 442.598 265.076Z" fill="black"/>
</g>
<path d="M442.598 265.076H283.949C281.74 265.076 279.949 266.867 279.949 269.076V319.517C279.949 321.726 281.74 323.517 283.949 323.517H442.598C444.807 323.517 446.598 321.726 446.598 319.517V269.076C446.598 266.867 444.807 265.076 442.598 265.076Z" fill="white"/>
<g filter="url(#filter3_d_241_221)">
<path d="M442.598 337.474H283.949C281.74 337.474 279.949 339.265 279.949 341.474V391.915C279.949 394.124 281.74 395.915 283.949 395.915H442.598C444.807 395.915 446.598 394.124 446.598 391.915V341.474C446.598 339.265 444.807 337.474 442.598 337.474Z" fill="black"/>
</g>
<path d="M442.598 337.474H283.949C281.74 337.474 279.949 339.265 279.949 341.474V391.915C279.949 394.124 281.74 395.915 283.949 395.915H442.598C444.807 395.915 446.598 394.124 446.598 391.915V341.474C446.598 339.265 444.807 337.474 442.598 337.474Z" fill="white"/>
<g filter="url(#filter4_d_241_221)">
<path d="M442.598 409.871H283.949C281.74 409.871 279.949 411.662 279.949 413.871V464.312C279.949 466.521 281.74 468.312 283.949 468.312H442.598C444.807 468.312 446.598 466.521 446.598 464.312V413.871C446.598 411.662 444.807 409.871 442.598 409.871Z" fill="black"/>
</g>
<path d="M442.598 409.871H283.949C281.74 409.871 279.949 411.662 279.949 413.871V464.312C279.949 466.521 281.74 468.312 283.949 468.312H442.598C444.807 468.312 446.598 466.521 446.598 464.312V413.871C446.598 411.662 444.807 409.871 442.598 409.871Z" fill="white"/>
<path d="M318.606 290.612V265.334H327.922C329.656 265.334 331.154 265.601 332.418 266.134C333.682 266.669 334.657 267.428 335.343 268.414C336.029 269.398 336.373 270.555 336.373 271.884C336.373 273.094 336.107 274.157 335.578 275.071C335.048 275.985 334.272 276.731 333.338 277.225C334.638 277.723 335.65 278.512 336.372 279.592C337.094 280.672 337.455 281.948 337.455 283.42C337.455 284.891 337.07 286.16 336.3 287.229C335.53 288.297 334.446 289.128 333.05 289.721C331.654 290.314 330.005 290.611 328.103 290.611H318.606V290.612ZM323.806 269.712V275.516H327.345C328.525 275.516 329.433 275.273 330.071 274.786C330.709 274.299 331.028 273.581 331.028 272.632C331.028 271.682 330.708 270.959 330.071 270.46C329.433 269.962 328.524 269.713 327.345 269.713H323.805L323.806 269.712ZM323.806 286.232H327.85C329.198 286.232 330.24 285.947 330.974 285.378C331.708 284.808 332.075 283.989 332.075 282.921C332.075 281.853 331.708 281.034 330.974 280.465C330.239 279.895 329.198 279.61 327.85 279.61H323.806V286.232ZM340.669 290.612V264.052H345.725V290.612H340.669ZM358.941 291.145C357.521 291.145 356.209 290.896 355.005 290.398C353.83 289.919 352.762 289.211 351.863 288.315C350.966 287.415 350.26 286.343 349.787 285.164C349.293 283.954 349.047 282.636 349.047 281.212C349.047 279.788 349.299 278.477 349.805 277.278C350.297 276.1 351.014 275.03 351.917 274.128C352.825 273.222 353.906 272.508 355.095 272.027C356.311 271.528 357.641 271.279 359.085 271.279C360.505 271.279 361.818 271.529 363.021 272.027C364.196 272.506 365.264 273.214 366.163 274.11C367.057 275.005 367.763 276.071 368.239 277.243C368.733 278.441 368.979 279.753 368.979 281.177C368.979 282.601 368.727 283.918 368.221 285.128C367.733 286.313 367.015 287.39 366.109 288.297C365.201 289.202 364.12 289.916 362.931 290.397C361.715 290.896 360.385 291.145 358.941 291.145ZM359.013 286.659C359.928 286.659 360.746 286.422 361.469 285.947C362.191 285.473 362.762 284.826 363.184 284.007C363.605 283.188 363.816 282.257 363.816 281.212C363.816 280.168 363.605 279.236 363.184 278.417C362.762 277.599 362.191 276.952 361.469 276.477C360.746 276.002 359.928 275.765 359.013 275.765C358.098 275.765 357.28 276.002 356.558 276.477C355.835 276.952 355.264 277.599 354.842 278.417C354.422 279.237 354.21 280.167 354.21 281.212C354.21 282.257 354.421 283.188 354.842 284.007C355.264 284.826 355.835 285.473 356.558 285.947C357.28 286.422 358.098 286.659 359.013 286.659ZM380.137 290.077C378.974 290.085 377.822 289.843 376.761 289.365C375.727 288.9 374.799 288.227 374.035 287.389C373.252 286.527 372.639 285.524 372.229 284.434C371.796 283.307 371.579 282.09 371.579 280.785C371.579 279.432 371.802 278.18 372.247 277.029C372.67 275.913 373.308 274.891 374.125 274.021C374.923 273.172 375.88 272.489 376.942 272.009C378.012 271.523 379.174 271.279 380.426 271.279C381.654 271.279 382.761 271.523 383.748 272.009C384.734 272.494 385.579 273.223 386.204 274.127L386.312 271.813H390.97V288.368C390.97 289.816 390.736 291.133 390.266 292.32C389.821 293.47 389.138 294.513 388.262 295.382C387.38 296.246 386.329 296.919 385.175 297.358C383.983 297.821 382.665 298.052 381.221 298.052C379.801 298.052 378.524 297.832 377.393 297.393C376.298 296.977 375.293 296.354 374.432 295.56C373.596 294.786 372.921 293.854 372.446 292.818L377.285 291.644C377.701 292.315 378.278 292.872 378.964 293.264C379.65 293.655 380.426 293.851 381.293 293.851C382.232 293.851 383.044 293.643 383.73 293.228C384.419 292.809 384.976 292.204 385.337 291.483C385.722 290.736 385.915 289.863 385.915 288.867V287.336C385.261 288.193 384.413 288.882 383.441 289.347C382.442 289.834 381.341 290.077 380.137 290.077ZM381.365 285.662C382.255 285.662 383.045 285.442 383.73 285.004C384.42 284.56 384.986 283.948 385.373 283.224C385.783 282.476 385.987 281.628 385.987 280.678C385.987 279.728 385.783 278.88 385.373 278.133C384.986 277.409 384.42 276.797 383.73 276.353C383.044 275.913 382.256 275.693 381.365 275.693C380.475 275.693 379.686 275.913 379 276.353C378.31 276.797 377.744 277.409 377.357 278.133C376.947 278.88 376.743 279.729 376.743 280.678C376.743 281.628 376.948 282.476 377.357 283.224C377.767 283.971 378.314 284.564 379 285.004C379.686 285.443 380.474 285.662 381.365 285.662ZM395.015 290.612V271.812H399.673L399.853 274.66C400.335 273.664 400.985 272.898 401.803 272.364C402.622 271.83 403.585 271.563 404.693 271.563C405.029 271.563 405.366 271.593 405.703 271.652C406.04 271.712 406.341 271.789 406.606 271.883L406.064 276.797C405.801 276.702 405.529 276.637 405.252 276.601C404.97 276.565 404.687 276.547 404.403 276.547C403.007 276.547 401.936 276.969 401.19 277.811C400.443 278.654 400.07 279.846 400.07 281.389V290.61H395.015V290.612Z" fill="white"/>
<path d="M458.048 464.946C458.048 475.533 450.233 484.654 439.65 484.654H288.732C278.148 484.654 268.946 475.533 268.946 464.946V93.111C268.946 82.524 278.148 74.784 288.732 74.784H306.179C309.868 74.784 311.23 74.362 311.454 79.039C311.57 81.469 312.461 83.357 313.889 84.92C315.315 86.454 317.279 87.714 319.535 88.421C321.066 88.901 322.771 89.335 324.396 89.335H404.147C405.773 89.335 407.477 88.801 409.008 88.322C411.266 87.615 413.228 86.435 414.655 84.93C416.083 83.395 416.974 81.586 417.089 79.157C417.312 74.481 418.676 74.784 422.365 74.784H439.65C450.233 74.784 458.048 82.524 458.048 93.111V464.946ZM352.453 76.602H376.09C377.094 76.602 377.909 77.224 377.909 78.117C377.909 79.01 377.094 79.633 376.09 79.633H352.453C351.448 79.633 350.635 79.01 350.635 78.117C350.635 77.224 351.448 76.602 352.453 76.602ZM388.516 77.124C388.516 77.8276 388.236 78.5024 387.739 79C387.241 79.4975 386.567 79.777 385.863 79.777C385.159 79.777 384.485 79.4975 383.987 79C383.49 78.5024 383.21 77.8276 383.21 77.124C383.21 76.4204 383.49 75.7456 383.987 75.248C384.485 74.7505 385.159 74.471 385.863 74.471C386.567 74.471 387.241 74.7505 387.739 75.248C388.236 75.7456 388.516 76.4204 388.516 77.124ZM469.564 162.092V94.306C469.564 77.162 455.671 63.264 438.532 63.264H287.754C270.077 63.264 255.612 77.734 255.612 95.419V120.258C255.13 120.258 254.667 120.45 254.326 120.79C253.985 121.131 253.793 121.594 253.793 122.076V134.809C253.793 135.292 253.985 135.754 254.326 136.096C254.667 136.437 255.129 136.629 255.612 136.629V151.786C255.129 151.786 254.667 151.978 254.326 152.319C253.985 152.661 253.793 153.123 253.793 153.606V180.89C253.794 181.372 253.985 181.834 254.326 182.175C254.667 182.516 255.13 182.708 255.612 182.708V191.803C255.13 191.803 254.667 191.995 254.326 192.336C253.985 192.677 253.794 193.139 253.793 193.621V220.906C253.793 221.389 253.985 221.851 254.326 222.193C254.667 222.534 255.129 222.726 255.612 222.726V466.342C255.612 484.082 270.121 498.599 287.855 498.599H438.532C455.599 498.599 469.564 484.629 469.564 467.556V212.416H470.169C470.408 212.416 470.645 212.369 470.865 212.278C471.086 212.186 471.287 212.052 471.456 211.884C471.625 211.715 471.759 211.514 471.85 211.293C471.942 211.073 471.989 210.836 471.989 210.597V163.912C471.989 162.907 471.175 162.092 470.169 162.092H469.564Z" fill="black"/>
<path d="M458.048 464.946C458.048 475.533 450.233 484.654 439.65 484.654H288.732C278.148 484.654 268.946 475.533 268.946 464.946V93.111C268.946 82.524 278.148 74.784 288.732 74.784H306.179C309.868 74.784 311.23 74.362 311.454 79.039C311.57 81.469 312.461 83.357 313.889 84.92C315.315 86.454 317.279 87.714 319.535 88.421C321.066 88.901 322.771 89.335 324.396 89.335H404.147C405.773 89.335 407.477 88.801 409.008 88.322C411.266 87.615 413.228 86.435 414.655 84.93C416.083 83.395 416.974 81.586 417.089 79.157C417.312 74.481 418.676 74.784 422.365 74.784H439.65C450.233 74.784 458.048 82.524 458.048 93.111V464.946ZM352.453 76.602H376.09C377.094 76.602 377.909 77.224 377.909 78.117C377.909 79.01 377.094 79.633 376.09 79.633H352.453C351.448 79.633 350.635 79.01 350.635 78.117C350.635 77.224 351.448 76.602 352.453 76.602ZM388.516 77.124C388.516 77.8276 388.236 78.5024 387.739 79C387.241 79.4975 386.567 79.777 385.863 79.777C385.159 79.777 384.485 79.4975 383.987 79C383.49 78.5024 383.21 77.8276 383.21 77.124C383.21 76.4204 383.49 75.7456 383.987 75.248C384.485 74.7505 385.159 74.471 385.863 74.471C386.567 74.471 387.241 74.7505 387.739 75.248C388.236 75.7456 388.516 76.4204 388.516 77.124ZM469.564 162.092V94.306C469.564 77.162 455.671 63.264 438.532 63.264H287.754C270.077 63.264 255.612 77.734 255.612 95.419V120.258C255.13 120.258 254.667 120.45 254.326 120.79C253.985 121.131 253.793 121.594 253.793 122.076V134.809C253.793 135.292 253.985 135.754 254.326 136.096C254.667 136.437 255.129 136.629 255.612 136.629V151.786C255.129 151.786 254.667 151.978 254.326 152.319C253.985 152.661 253.793 153.123 253.793 153.606V180.89C253.794 181.372 253.985 181.834 254.326 182.175C254.667 182.516 255.13 182.708 255.612 182.708V191.803C255.13 191.803 254.667 191.995 254.326 192.336C253.985 192.677 253.794 193.139 253.793 193.621V220.906C253.793 221.389 253.985 221.851 254.326 222.193C254.667 222.534 255.129 222.726 255.612 222.726V466.342C255.612 484.082 270.121 498.599 287.855 498.599H438.532C455.599 498.599 469.564 484.629 469.564 467.556V212.416H470.169C470.408 212.416 470.645 212.369 470.865 212.278C471.086 212.186 471.287 212.052 471.456 211.884C471.625 211.715 471.759 211.514 471.85 211.293C471.942 211.073 471.989 210.836 471.989 210.597V163.912C471.989 162.907 471.175 162.092 470.169 162.092H469.564Z" fill="#1D1D25"/>
<path fill-rule="evenodd" clip-rule="evenodd" d="M376.091 76.602H352.454C351.449 76.602 350.635 77.226 350.635 78.119C350.635 79.011 351.449 79.634 352.455 79.634H376.091C377.096 79.634 377.911 79.011 377.911 78.119C377.911 77.226 377.096 76.602 376.091 76.602ZM385.865 74.472C385.161 74.4723 384.487 74.752 383.989 75.2498C383.492 75.7475 383.213 76.4224 383.213 77.126C383.213 77.8296 383.493 78.5043 383.991 79.0017C384.489 79.499 385.163 79.7783 385.867 79.778C386.571 79.7777 387.245 79.498 387.743 79.0003C388.24 78.5025 388.519 77.8276 388.519 77.124C388.519 76.4204 388.239 75.7457 387.741 75.2483C387.244 74.751 386.569 74.4717 385.865 74.472Z" fill="black"/>
<defs>
<filter id="filter0_d_241_221" x="259.949" y="110.282" width="206.649" height="98.441" filterUnits="userSpaceOnUse" color-interpolation-filters="sRGB">
<feFlood flood-opacity="0" result="BackgroundImageFix"/>
<feColorMatrix in="SourceAlpha" type="matrix" values="0 0 0 0 0 0 0 0 0 0 0 0 0 0 0 0 0 0 127 0" result="hardAlpha"/>
<feOffset dy="10"/>
<feGaussianBlur stdDeviation="10"/>
<feColorMatrix type="matrix" values="0 0 0 0 0.421822 0 0 0 0 0.554338 0 0 0 0 0.89371 0 0 0 0.243444 0"/>
<feBlend mode="normal" in2="BackgroundImageFix" result="effect1_dropShadow_241_221"/>
<feBlend mode="normal" in="SourceGraphic" in2="effect1_dropShadow_241_221" result="shape"/>
</filter>
<filter id="filter1_d_241_221" x="259.949" y="182.679" width="206.649" height="98.441" filterUnits="userSpaceOnUse" color-interpolation-filters="sRGB">
<feFlood flood-opacity="0" result="BackgroundImageFix"/>
<feColorMatrix in="SourceAlpha" type="matrix" values="0 0 0 0 0 0 0 0 0 0 0 0 0 0 0 0 0 0 127 0" result="hardAlpha"/>
<feOffset dy="10"/>
<feGaussianBlur stdDeviation="10"/>
<feColorMatrix type="matrix" values="0 0 0 0 0.421822 0 0 0 0 0.554338 0 0 0 0 0.89371 0 0 0 0.243444 0"/>
<feBlend mode="normal" in2="BackgroundImageFix" result="effect1_dropShadow_241_221"/>
<feBlend mode="normal" in="SourceGraphic" in2="effect1_dropShadow_241_221" result="shape"/>
</filter>
<filter id="filter2_d_241_221" x="259.949" y="255.076" width="206.649" height="98.441" filterUnits="userSpaceOnUse" color-interpolation-filters="sRGB">
<feFlood flood-opacity="0" result="BackgroundImageFix"/>
<feColorMatrix in="SourceAlpha" type="matrix" values="0 0 0 0 0 0 0 0 0 0 0 0 0 0 0 0 0 0 127 0" result="hardAlpha"/>
<feOffset dy="10"/>
<feGaussianBlur stdDeviation="10"/>
<feColorMatrix type="matrix" values="0 0 0 0 0.421822 0 0 0 0 0.554338 0 0 0 0 0.89371 0 0 0 0.243444 0"/>
<feBlend mode="normal" in2="BackgroundImageFix" result="effect1_dropShadow_241_221"/>
<feBlend mode="normal" in="SourceGraphic" in2="effect1_dropShadow_241_221" result="shape"/>
</filter>
<filter id="filter3_d_241_221" x="259.949" y="327.474" width="206.649" height="98.441" filterUnits="userSpaceOnUse" color-interpolation-filters="sRGB">
<feFlood flood-opacity="0" result="BackgroundImageFix"/>
<feColorMatrix in="SourceAlpha" type="matrix" values="0 0 0 0 0 0 0 0 0 0 0 0 0 0 0 0 0 0 127 0" result="hardAlpha"/>
<feOffset dy="10"/>
<feGaussianBlur stdDeviation="10"/>
<feColorMatrix type="matrix" values="0 0 0 0 0.421822 0 0 0 0 0.554338 0 0 0 0 0.89371 0 0 0 0.243444 0"/>
<feBlend mode="normal" in2="BackgroundImageFix" result="effect1_dropShadow_241_221"/>
<feBlend mode="normal" in="SourceGraphic" in2="effect1_dropShadow_241_221" result="shape"/>
</filter>
<filter id="filter4_d_241_221" x="259.949" y="399.871" width="206.649" height="98.441" filterUnits="userSpaceOnUse" color-interpolation-filters="sRGB">
<feFlood flood-opacity="0" result="BackgroundImageFix"/>
<feColorMatrix in="SourceAlpha" type="matrix" values="0 0 0 0 0 0 0 0 0 0 0 0 0 0 0 0 0 0 127 0" result="hardAlpha"/>
<feOffset dy="10"/>
<feGaussianBlur stdDeviation="10"/>
<feColorMatrix type="matrix" values="0 0 0 0 0.421822 0 0 0 0 0.554338 0 0 0 0 0.89371 0 0 0 0.243444 0"/>
<feBlend mode="normal" in2="BackgroundImageFix" result="effect1_dropShadow_241_221"/>
<feBlend mode="normal" in="SourceGraphic" in2="effect1_dropShadow_241_221" result="shape"/>
</filter>
<linearGradient id="paint0_linear_241_221" x1="86.8834" y1="5.05201" x2="261.34" y2="366.8" gradientUnits="userSpaceOnUse">
<stop stop-color="#FF8F71"/>
<stop offset="1" stop-color="#FF3E55"/>
</linearGradient>
<linearGradient id="paint1_linear_241_221" x1="339.883" y1="68.052" x2="514.34" y2="429.8" gradientUnits="userSpaceOnUse">
<stop stop-color="#FF8F71"/>
<stop offset="1" stop-color="#FF3E55"/>
</linearGradient>
<linearGradient id="paint2_linear_241_221" x1="268.606" y1="105.2" x2="436.972" y2="170.357" gradientUnits="userSpaceOnUse">
<stop stop-color="#FF8F71"/>
<stop offset="1" stop-color="#FF3E55"/>
</linearGradient>
</defs>
</svg>
