<svg width="328" height="326" viewBox="0 0 328 326" fill="none" xmlns="http://www.w3.org/2000/svg">
<g clip-path="url(#clip0_344_6)">
<path opacity="0.08" d="M276 164.5C276 226.08 226.08 276 164.5 276C102.92 276 53 226.08 53 164.5C53 102.92 102.92 53 164.5 53C226.08 53 276 102.92 276 164.5Z" fill="#2D2E40"/>
<path opacity="0.5" d="M289.5 163C289.5 232.312 233.312 288.5 164 288.5C94.6883 288.5 38.5 232.312 38.5 163C38.5 93.6883 94.6883 37.5 164 37.5C233.312 37.5 289.5 93.6883 289.5 163Z" stroke="#2D2E40"/>
<path opacity="0.25" d="M326.5 163C326.5 252.746 253.746 325.5 164 325.5C74.2537 325.5 1.5 252.746 1.5 163C1.5 73.2537 74.2537 0.5 164 0.5C253.746 0.5 326.5 73.2537 326.5 163Z" stroke="#2D2E40"/>
<g filter="url(#filter0_d_344_6)">
<path d="M279 75H51C44.3726 75 39 80.3726 39 87V236C39 242.627 44.3726 248 51 248H279C285.627 248 291 242.627 291 236V87C291 80.3726 285.627 75 279 75Z" fill="#535353"/>
<path d="M280 77H50C44.4772 77 40 81.4772 40 87V237C40 242.523 44.4772 247 50 247H280C285.523 247 290 242.523 290 237V87C290 81.4772 285.523 77 280 77Z" fill="#1D1D25"/>
<mask id="mask0_344_6" style="mask-type:alpha" maskUnits="userSpaceOnUse" x="47" y="83" width="237" height="158">
<path d="M281 83H50C48.3431 83 47 84.3431 47 86V237.94C47 239.597 48.3431 240.94 50 240.94H281C282.657 240.94 284 239.597 284 237.94V86C284 84.3431 282.657 83 281 83Z" fill="white"/>
</mask>
<g mask="url(#mask0_344_6)">
<path d="M281 83H50C48.3431 83 47 84.3431 47 86V237.94C47 239.597 48.3431 240.94 50 240.94H281C282.657 240.94 284 239.597 284 237.94V86C284 84.3431 282.657 83 281 83Z" fill="url(#paint0_linear_344_6)"/>
<path d="M280.848 111.352H49.848C48.1912 111.352 46.848 112.695 46.848 114.352V238.061C46.848 239.718 48.1912 241.061 49.848 241.061H280.848C282.505 241.061 283.848 239.718 283.848 238.061V114.352C283.848 112.695 282.505 111.352 280.848 111.352Z" fill="#F9F6F6"/>
<path d="M127.429 100.615H83.478C81.8212 100.615 80.478 101.958 80.478 103.615V218.25C80.478 219.907 81.8212 221.25 83.478 221.25H127.429C129.086 221.25 130.429 219.907 130.429 218.25V103.615C130.429 101.958 129.086 100.615 127.429 100.615Z" fill="white"/>
<path d="M247.523 100.615H141.931C140.274 100.615 138.931 101.958 138.931 103.615V218.25C138.931 219.907 140.274 221.25 141.931 221.25H247.523C249.18 221.25 250.523 219.907 250.523 218.25V103.615C250.523 101.958 249.18 100.615 247.523 100.615Z" fill="white"/>
<path d="M242.74 107.02H146.713C145.056 107.02 143.713 108.363 143.713 110.02V132.311C143.713 133.968 145.056 135.311 146.713 135.311H242.74C244.397 135.311 245.74 133.968 245.74 132.311V110.02C245.74 108.363 244.397 107.02 242.74 107.02Z" fill="#E7E7E7"/>
<path d="M171.002 141.183H146.713C145.056 141.183 143.713 142.526 143.713 144.183V166.474C143.713 168.131 145.056 169.474 146.713 169.474H171.002C172.659 169.474 174.002 168.131 174.002 166.474V144.183C174.002 142.526 172.659 141.183 171.002 141.183Z" fill="#E7E7E7"/>
<path d="M242.74 141.183H184.442C182.785 141.183 181.442 142.526 181.442 144.183V166.474C181.442 168.131 182.785 169.474 184.442 169.474H242.74C244.397 169.474 245.74 168.131 245.74 166.474V144.183C245.74 142.526 244.397 141.183 242.74 141.183Z" fill="#E7E7E7"/>
</g>
<g opacity="0.098">
<path opacity="0.098" d="M169.62 68H164.5C164.224 68 164 68.2239 164 68.5C164 68.7761 164.224 69 164.5 69H169.62C169.896 69 170.12 68.7761 170.12 68.5C170.12 68.2239 169.896 68 169.62 68Z" fill="#4A5166"/>
<path opacity="0.098" d="M172.5 68H172.06C171.784 68 171.56 68.2239 171.56 68.5C171.56 68.7761 171.784 69 172.06 69H172.5C172.776 69 173 68.7761 173 68.5C173 68.2239 172.776 68 172.5 68Z" fill="#4A5166"/>
</g>
<mask id="mask1_344_6" style="mask-type:alpha" maskUnits="userSpaceOnUse" x="0" y="246" width="328" height="8">
<path d="M3 246H324.953C325.749 246 326.512 246.316 327.074 246.879C327.637 247.441 327.953 248.204 327.953 249V253.602H0V249C0 248.204 0.31607 247.441 0.87868 246.879C1.44129 246.316 2.20435 246 3 246V246Z" fill="white"/>
</mask>
<g mask="url(#mask1_344_6)">
<path d="M3 246H324.953C325.749 246 326.512 246.316 327.074 246.879C327.637 247.441 327.953 248.204 327.953 249V253.602H0V249C0 248.204 0.31607 247.441 0.87868 246.879C1.44129 246.316 2.20435 246 3 246V246Z" fill="#52526F"/>
<path d="M180.76 227.374H147.193C141.67 227.374 137.193 231.851 137.193 237.374V240.561C137.193 246.084 141.67 250.561 147.193 250.561H180.76C186.283 250.561 190.76 246.084 190.76 240.561V237.374C190.76 231.851 186.283 227.374 180.76 227.374Z" fill="#2F2F47"/>
</g>
<path d="M0 254H328C328 254.796 327.684 255.559 327.121 256.121C326.559 256.684 325.796 257 325 257H3C2.20435 257 1.44129 256.684 0.87868 256.121C0.31607 255.559 0 254.796 0 254H0Z" fill="#393A56"/>
</g>
</g>
<defs>
<filter id="filter0_d_344_6" x="-40" y="48" width="408" height="269" filterUnits="userSpaceOnUse" color-interpolation-filters="sRGB">
<feFlood flood-opacity="0" result="BackgroundImageFix"/>
<feColorMatrix in="SourceAlpha" type="matrix" values="0 0 0 0 0 0 0 0 0 0 0 0 0 0 0 0 0 0 127 0" result="hardAlpha"/>
<feOffset dy="20"/>
<feGaussianBlur stdDeviation="20"/>
<feColorMatrix type="matrix" values="0 0 0 0 0.421822 0 0 0 0 0.554338 0 0 0 0 0.89371 0 0 0 0.243444 0"/>
<feBlend mode="normal" in2="BackgroundImageFix" result="effect1_dropShadow_344_6"/>
<feBlend mode="normal" in="SourceGraphic" in2="effect1_dropShadow_344_6" result="shape"/>
</filter>
<linearGradient id="paint0_linear_344_6" x1="47" y1="126.899" x2="243.485" y2="257.837" gradientUnits="userSpaceOnUse">
<stop stop-color="#FF8F71"/>
<stop offset="1" stop-color="#FF3E55"/>
</linearGradient>
<clipPath id="clip0_344_6">
<rect width="328" height="325" fill="white" transform="translate(0 0.5)"/>
</clipPath>
</defs>
</svg>
