<svg width="552" height="579" viewBox="0 0 552 579" fill="none" xmlns="http://www.w3.org/2000/svg">
<path d="M229.813 24.788H69.813C57.6627 24.788 47.813 34.6377 47.813 46.788V425.788C47.813 437.938 57.6627 447.788 69.813 447.788H229.813C241.963 447.788 251.813 437.938 251.813 425.788V46.788C251.813 34.6377 241.963 24.788 229.813 24.788Z" fill="url(#paint0_linear_240_36)"/>
<path d="M104.813 247.348V222.07H114.129C115.863 222.07 117.361 222.337 118.625 222.87C119.889 223.405 120.864 224.164 121.55 225.15C122.236 226.134 122.58 227.291 122.58 228.62C122.58 229.83 122.314 230.893 121.785 231.807C121.255 232.721 120.479 233.467 119.545 233.961C120.845 234.459 121.857 235.248 122.579 236.328C123.301 237.408 123.662 238.684 123.662 240.156C123.662 241.627 123.277 242.896 122.507 243.965C121.737 245.033 120.653 245.864 119.257 246.457C117.861 247.05 116.212 247.347 114.31 247.347H104.813V247.348ZM110.013 226.448V232.252H113.552C114.732 232.252 115.64 232.009 116.278 231.522C116.916 231.035 117.235 230.317 117.235 229.368C117.235 228.418 116.915 227.695 116.278 227.196C115.64 226.698 114.731 226.449 113.552 226.449H110.012L110.013 226.448ZM110.013 242.968H114.057C115.405 242.968 116.447 242.683 117.181 242.114C117.915 241.544 118.282 240.725 118.282 239.657C118.282 238.589 117.915 237.77 117.181 237.201C116.446 236.631 115.405 236.346 114.057 236.346H110.013V242.968ZM126.876 247.348V220.788H131.932V247.348H126.876ZM145.148 247.881C143.728 247.881 142.416 247.632 141.212 247.134C140.037 246.655 138.969 245.947 138.07 245.051C137.173 244.151 136.467 243.079 135.994 241.9C135.5 240.69 135.254 239.372 135.254 237.948C135.254 236.524 135.506 235.213 136.012 234.014C136.504 232.836 137.221 231.766 138.124 230.864C139.032 229.958 140.113 229.244 141.302 228.763C142.518 228.264 143.848 228.015 145.292 228.015C146.712 228.015 148.025 228.265 149.228 228.763C150.403 229.242 151.471 229.95 152.37 230.846C153.264 231.741 153.97 232.807 154.446 233.979C154.94 235.177 155.186 236.489 155.186 237.913C155.186 239.337 154.934 240.654 154.428 241.864C153.94 243.049 153.222 244.126 152.316 245.033C151.408 245.938 150.327 246.652 149.138 247.133C147.922 247.632 146.592 247.881 145.148 247.881V247.881ZM145.22 243.395C146.135 243.395 146.953 243.158 147.676 242.683C148.398 242.209 148.969 241.562 149.391 240.743C149.812 239.924 150.023 238.993 150.023 237.948C150.023 236.904 149.812 235.972 149.391 235.153C148.969 234.335 148.398 233.688 147.676 233.213C146.953 232.738 146.135 232.501 145.22 232.501C144.305 232.501 143.487 232.738 142.765 233.213C142.042 233.688 141.471 234.335 141.049 235.153C140.629 235.973 140.417 236.903 140.417 237.948C140.417 238.993 140.628 239.924 141.049 240.743C141.471 241.562 142.042 242.209 142.765 242.683C143.487 243.158 144.305 243.395 145.22 243.395ZM166.344 246.813C165.181 246.821 164.029 246.579 162.968 246.101C161.934 245.636 161.006 244.963 160.242 244.125C159.459 243.263 158.846 242.26 158.436 241.17C158.003 240.043 157.786 238.826 157.786 237.521C157.786 236.168 158.009 234.916 158.454 233.765C158.877 232.649 159.515 231.627 160.332 230.757C161.13 229.908 162.087 229.225 163.149 228.745C164.219 228.259 165.381 228.015 166.633 228.015C167.861 228.015 168.968 228.259 169.955 228.745C170.941 229.23 171.786 229.959 172.411 230.863L172.519 228.549H177.177V245.104C177.177 246.552 176.943 247.869 176.473 249.056C176.028 250.206 175.345 251.249 174.469 252.118C173.587 252.982 172.536 253.655 171.382 254.094C170.19 254.557 168.872 254.788 167.428 254.788C166.008 254.788 164.731 254.568 163.6 254.129C162.505 253.713 161.5 253.09 160.639 252.296C159.803 251.522 159.128 250.59 158.653 249.554L163.492 248.38C163.908 249.051 164.485 249.608 165.171 250C165.857 250.391 166.633 250.587 167.5 250.587C168.439 250.587 169.251 250.379 169.937 249.964C170.626 249.545 171.183 248.94 171.544 248.219C171.929 247.472 172.122 246.599 172.122 245.603V244.072C171.468 244.929 170.62 245.618 169.648 246.083C168.649 246.57 167.548 246.813 166.344 246.813V246.813ZM167.572 242.398C168.462 242.398 169.252 242.178 169.937 241.74C170.627 241.296 171.193 240.684 171.58 239.96C171.99 239.212 172.194 238.364 172.194 237.414C172.194 236.464 171.99 235.616 171.58 234.869C171.193 234.145 170.627 233.533 169.937 233.089C169.251 232.649 168.463 232.429 167.572 232.429C166.682 232.429 165.893 232.649 165.207 233.089C164.517 233.533 163.951 234.145 163.564 234.869C163.154 235.616 162.95 236.465 162.95 237.414C162.95 238.364 163.155 239.212 163.564 239.96C163.974 240.707 164.521 241.3 165.207 241.74C165.893 242.179 166.681 242.398 167.572 242.398ZM181.222 247.348V228.548H185.88L186.06 231.396C186.542 230.4 187.192 229.634 188.01 229.1C188.829 228.566 189.792 228.299 190.9 228.299C191.236 228.299 191.573 228.329 191.91 228.388C192.247 228.448 192.548 228.525 192.813 228.619L192.271 233.533C192.008 233.438 191.736 233.373 191.459 233.337C191.177 233.301 190.894 233.283 190.61 233.283C189.214 233.283 188.143 233.705 187.397 234.547C186.65 235.39 186.277 236.582 186.277 238.125V247.346H181.222V247.348Z" fill="white"/>
<g filter="url(#filter0_d_240_36)">
<path d="M244.255 421.682C244.255 432.269 236.44 441.39 225.857 441.39H74.939C64.355 441.39 55.153 432.269 55.153 421.682V49.847C55.153 39.26 64.355 31.52 74.939 31.52H92.386C96.075 31.52 97.437 31.098 97.661 35.775C97.777 38.205 98.668 40.093 100.096 41.656C101.522 43.19 103.486 44.45 105.742 45.157C107.273 45.637 108.978 46.071 110.603 46.071H190.354C191.98 46.071 193.684 45.537 195.215 45.058C197.473 44.351 199.435 43.171 200.862 41.666C202.29 40.131 203.181 38.322 203.296 35.893C203.519 31.217 204.883 31.52 208.572 31.52H225.857C236.44 31.52 244.255 39.26 244.255 49.847V421.682V421.682ZM138.66 33.338H162.297C163.301 33.338 164.116 33.96 164.116 34.853C164.116 35.746 163.301 36.369 162.297 36.369H138.66C137.655 36.369 136.842 35.746 136.842 34.853C136.842 33.96 137.655 33.338 138.66 33.338V33.338ZM174.723 33.86C174.723 34.5636 174.443 35.2384 173.946 35.736C173.448 36.2335 172.774 36.513 172.07 36.513C171.366 36.513 170.692 36.2335 170.194 35.736C169.697 35.2384 169.417 34.5636 169.417 33.86C169.417 33.1564 169.697 32.4816 170.194 31.984C170.692 31.4865 171.366 31.207 172.07 31.207C172.774 31.207 173.448 31.4865 173.946 31.984C174.443 32.4816 174.723 33.1564 174.723 33.86ZM255.771 118.828V51.042C255.771 33.898 241.878 20 224.739 20H73.961C56.284 20 41.819 34.47 41.819 52.155V76.994C41.3367 76.994 40.8742 77.1855 40.5331 77.5264C40.192 77.8673 40.0003 78.3297 40 78.812V91.545C40 92.0275 40.1916 92.4903 40.5327 92.8316C40.8738 93.1729 41.3365 93.3647 41.819 93.365V108.522C41.3365 108.522 40.8738 108.714 40.5327 109.055C40.1916 109.397 40 109.859 40 110.342V137.626C40.0005 138.108 40.1924 138.57 40.5334 138.911C40.8745 139.252 41.3368 139.444 41.819 139.444V148.539C41.3368 148.539 40.8745 148.731 40.5334 149.072C40.1924 149.413 40.0005 149.875 40 150.357V177.642C40 178.125 40.1916 178.587 40.5327 178.929C40.8738 179.27 41.3365 179.462 41.819 179.462V423.078C41.819 440.818 56.328 455.335 74.062 455.335H224.739C241.806 455.335 255.771 441.365 255.771 424.292V169.152H256.376C256.615 169.152 256.852 169.105 257.072 169.014C257.293 168.922 257.494 168.788 257.663 168.62C257.832 168.451 257.966 168.25 258.057 168.029C258.149 167.809 258.196 167.572 258.196 167.333V120.648C258.196 119.643 257.382 118.828 256.376 118.828H255.771V118.828Z" fill="black"/>
</g>
<path d="M244.255 421.682C244.255 432.269 236.44 441.39 225.857 441.39H74.939C64.355 441.39 55.153 432.269 55.153 421.682V49.847C55.153 39.26 64.355 31.52 74.939 31.52H92.386C96.075 31.52 97.437 31.098 97.661 35.775C97.777 38.205 98.668 40.093 100.096 41.656C101.522 43.19 103.486 44.45 105.742 45.157C107.273 45.637 108.978 46.071 110.603 46.071H190.354C191.98 46.071 193.684 45.537 195.215 45.058C197.473 44.351 199.435 43.171 200.862 41.666C202.29 40.131 203.181 38.322 203.296 35.893C203.519 31.217 204.883 31.52 208.572 31.52H225.857C236.44 31.52 244.255 39.26 244.255 49.847V421.682V421.682ZM138.66 33.338H162.297C163.301 33.338 164.116 33.96 164.116 34.853C164.116 35.746 163.301 36.369 162.297 36.369H138.66C137.655 36.369 136.842 35.746 136.842 34.853C136.842 33.96 137.655 33.338 138.66 33.338V33.338ZM174.723 33.86C174.723 34.5636 174.443 35.2384 173.946 35.736C173.448 36.2335 172.774 36.513 172.07 36.513C171.366 36.513 170.692 36.2335 170.194 35.736C169.697 35.2384 169.417 34.5636 169.417 33.86C169.417 33.1564 169.697 32.4816 170.194 31.984C170.692 31.4865 171.366 31.207 172.07 31.207C172.774 31.207 173.448 31.4865 173.946 31.984C174.443 32.4816 174.723 33.1564 174.723 33.86ZM255.771 118.828V51.042C255.771 33.898 241.878 20 224.739 20H73.961C56.284 20 41.819 34.47 41.819 52.155V76.994C41.3367 76.994 40.8742 77.1855 40.5331 77.5264C40.192 77.8673 40.0003 78.3297 40 78.812V91.545C40 92.0275 40.1916 92.4903 40.5327 92.8316C40.8738 93.1729 41.3365 93.3647 41.819 93.365V108.522C41.3365 108.522 40.8738 108.714 40.5327 109.055C40.1916 109.397 40 109.859 40 110.342V137.626C40.0005 138.108 40.1924 138.57 40.5334 138.911C40.8745 139.252 41.3368 139.444 41.819 139.444V148.539C41.3368 148.539 40.8745 148.731 40.5334 149.072C40.1924 149.413 40.0005 149.875 40 150.357V177.642C40 178.125 40.1916 178.587 40.5327 178.929C40.8738 179.27 41.3365 179.462 41.819 179.462V423.078C41.819 440.818 56.328 455.335 74.062 455.335H224.739C241.806 455.335 255.771 441.365 255.771 424.292V169.152H256.376C256.615 169.152 256.852 169.105 257.072 169.014C257.293 168.922 257.494 168.788 257.663 168.62C257.832 168.451 257.966 168.25 258.057 168.029C258.149 167.809 258.196 167.572 258.196 167.333V120.648C258.196 119.643 257.382 118.828 256.376 118.828H255.771V118.828Z" fill="#1D1D25"/>
<path fill-rule="evenodd" clip-rule="evenodd" d="M162.297 33.338H138.66C137.655 33.338 136.841 33.962 136.841 34.855C136.841 35.747 137.655 36.37 138.661 36.37H162.297C163.302 36.37 164.117 35.747 164.117 34.855C164.117 33.962 163.302 33.338 162.297 33.338V33.338ZM172.071 31.208C171.367 31.2083 170.693 31.488 170.195 31.9858C169.698 32.4835 169.419 33.1584 169.419 33.862C169.419 34.5656 169.699 35.2403 170.197 35.7377C170.695 36.235 171.369 36.5143 172.073 36.514C172.777 36.5137 173.451 36.234 173.949 35.7363C174.446 35.2385 174.725 34.5636 174.725 33.86C174.725 33.1564 174.445 32.4817 173.947 31.9843C173.45 31.487 172.775 31.2077 172.071 31.208" fill="black"/>
<path d="M482.813 87.788H322.813C310.663 87.788 300.813 97.6377 300.813 109.788V488.788C300.813 500.938 310.663 510.788 322.813 510.788H482.813C494.963 510.788 504.813 500.938 504.813 488.788V109.788C504.813 97.6377 494.963 87.788 482.813 87.788Z" fill="url(#paint1_linear_240_36)"/>
<path d="M475.148 93.788H329.813C317.663 93.788 307.813 103.638 307.813 115.788V486.109C307.813 498.259 317.663 508.109 329.813 508.109H475.148C487.298 508.109 497.148 498.259 497.148 486.109V115.788C497.148 103.638 487.298 93.788 475.148 93.788Z" fill="white"/>
<path d="M475.148 93.788H329.813C317.663 93.788 307.813 103.638 307.813 115.788V145.057C307.813 157.207 317.663 167.057 329.813 167.057H475.148C487.298 167.057 497.148 157.207 497.148 145.057V115.788C497.148 103.638 487.298 93.788 475.148 93.788Z" fill="url(#paint2_linear_240_36)"/>
<g filter="url(#filter1_d_240_36)">
<path d="M481.805 140.018H323.156C320.947 140.018 319.156 141.809 319.156 144.018V194.459C319.156 196.668 320.947 198.459 323.156 198.459H481.805C484.014 198.459 485.805 196.668 485.805 194.459V144.018C485.805 141.809 484.014 140.018 481.805 140.018Z" fill="black"/>
</g>
<path d="M481.805 140.018H323.156C320.947 140.018 319.156 141.809 319.156 144.018V194.459C319.156 196.668 320.947 198.459 323.156 198.459H481.805C484.014 198.459 485.805 196.668 485.805 194.459V144.018C485.805 141.809 484.014 140.018 481.805 140.018Z" fill="white"/>
<g filter="url(#filter2_d_240_36)">
<path d="M481.805 212.415H323.156C320.947 212.415 319.156 214.206 319.156 216.415V266.856C319.156 269.065 320.947 270.856 323.156 270.856H481.805C484.014 270.856 485.805 269.065 485.805 266.856V216.415C485.805 214.206 484.014 212.415 481.805 212.415Z" fill="black"/>
</g>
<path d="M481.805 212.415H323.156C320.947 212.415 319.156 214.206 319.156 216.415V266.856C319.156 269.065 320.947 270.856 323.156 270.856H481.805C484.014 270.856 485.805 269.065 485.805 266.856V216.415C485.805 214.206 484.014 212.415 481.805 212.415Z" fill="white"/>
<g filter="url(#filter3_d_240_36)">
<path d="M481.805 284.812H323.156C320.947 284.812 319.156 286.603 319.156 288.812V339.253C319.156 341.462 320.947 343.253 323.156 343.253H481.805C484.014 343.253 485.805 341.462 485.805 339.253V288.812C485.805 286.603 484.014 284.812 481.805 284.812Z" fill="black"/>
</g>
<path d="M481.805 284.812H323.156C320.947 284.812 319.156 286.603 319.156 288.812V339.253C319.156 341.462 320.947 343.253 323.156 343.253H481.805C484.014 343.253 485.805 341.462 485.805 339.253V288.812C485.805 286.603 484.014 284.812 481.805 284.812Z" fill="white"/>
<g filter="url(#filter4_d_240_36)">
<path d="M481.805 357.21H323.156C320.947 357.21 319.156 359.001 319.156 361.21V411.651C319.156 413.86 320.947 415.651 323.156 415.651H481.805C484.014 415.651 485.805 413.86 485.805 411.651V361.21C485.805 359.001 484.014 357.21 481.805 357.21Z" fill="black"/>
</g>
<path d="M481.805 357.21H323.156C320.947 357.21 319.156 359.001 319.156 361.21V411.651C319.156 413.86 320.947 415.651 323.156 415.651H481.805C484.014 415.651 485.805 413.86 485.805 411.651V361.21C485.805 359.001 484.014 357.21 481.805 357.21Z" fill="white"/>
<g filter="url(#filter5_d_240_36)">
<path d="M481.805 429.607H323.156C320.947 429.607 319.156 431.398 319.156 433.607V484.048C319.156 486.257 320.947 488.048 323.156 488.048H481.805C484.014 488.048 485.805 486.257 485.805 484.048V433.607C485.805 431.398 484.014 429.607 481.805 429.607Z" fill="black"/>
</g>
<path d="M481.805 429.607H323.156C320.947 429.607 319.156 431.398 319.156 433.607V484.048C319.156 486.257 320.947 488.048 323.156 488.048H481.805C484.014 488.048 485.805 486.257 485.805 484.048V433.607C485.805 431.398 484.014 429.607 481.805 429.607Z" fill="white"/>
<path d="M357.813 310.348V285.07H367.129C368.863 285.07 370.361 285.337 371.625 285.87C372.889 286.405 373.864 287.164 374.55 288.15C375.236 289.134 375.58 290.291 375.58 291.62C375.58 292.83 375.314 293.893 374.785 294.807C374.255 295.721 373.479 296.467 372.545 296.961C373.845 297.459 374.857 298.248 375.579 299.328C376.301 300.408 376.662 301.684 376.662 303.156C376.662 304.627 376.277 305.896 375.507 306.965C374.737 308.033 373.653 308.864 372.257 309.457C370.861 310.05 369.212 310.347 367.31 310.347H357.813V310.348ZM363.013 289.448V295.252H366.552C367.732 295.252 368.64 295.009 369.278 294.522C369.916 294.035 370.235 293.317 370.235 292.368C370.235 291.418 369.915 290.695 369.278 290.196C368.64 289.698 367.731 289.449 366.552 289.449H363.012L363.013 289.448ZM363.013 305.968H367.057C368.405 305.968 369.447 305.683 370.181 305.114C370.915 304.544 371.282 303.725 371.282 302.657C371.282 301.589 370.915 300.77 370.181 300.201C369.446 299.631 368.405 299.346 367.057 299.346H363.013V305.968ZM379.876 310.348V283.788H384.932V310.348H379.876ZM398.148 310.881C396.728 310.881 395.416 310.632 394.212 310.134C393.037 309.655 391.969 308.947 391.07 308.051C390.173 307.151 389.467 306.079 388.994 304.9C388.5 303.69 388.254 302.372 388.254 300.948C388.254 299.524 388.506 298.213 389.012 297.014C389.504 295.836 390.221 294.766 391.124 293.864C392.032 292.958 393.113 292.244 394.302 291.763C395.518 291.264 396.848 291.015 398.292 291.015C399.712 291.015 401.025 291.265 402.228 291.763C403.403 292.242 404.471 292.95 405.37 293.846C406.264 294.741 406.97 295.807 407.446 296.979C407.94 298.177 408.186 299.489 408.186 300.913C408.186 302.337 407.934 303.654 407.428 304.864C406.94 306.049 406.222 307.126 405.316 308.033C404.408 308.938 403.327 309.652 402.138 310.133C400.922 310.632 399.592 310.881 398.148 310.881V310.881ZM398.22 306.395C399.135 306.395 399.953 306.158 400.676 305.683C401.398 305.209 401.969 304.562 402.391 303.743C402.812 302.924 403.023 301.993 403.023 300.948C403.023 299.904 402.812 298.972 402.391 298.153C401.969 297.335 401.398 296.688 400.676 296.213C399.953 295.738 399.135 295.501 398.22 295.501C397.305 295.501 396.487 295.738 395.765 296.213C395.042 296.688 394.471 297.335 394.049 298.153C393.629 298.973 393.417 299.903 393.417 300.948C393.417 301.993 393.628 302.924 394.049 303.743C394.471 304.562 395.042 305.209 395.765 305.683C396.487 306.158 397.305 306.395 398.22 306.395ZM419.344 309.813C418.181 309.821 417.029 309.579 415.968 309.101C414.934 308.636 414.006 307.963 413.242 307.125C412.459 306.263 411.846 305.26 411.436 304.17C411.003 303.043 410.786 301.826 410.786 300.521C410.786 299.168 411.009 297.916 411.454 296.765C411.877 295.649 412.515 294.627 413.332 293.757C414.13 292.908 415.087 292.225 416.149 291.745C417.219 291.259 418.381 291.015 419.633 291.015C420.861 291.015 421.968 291.259 422.955 291.745C423.941 292.23 424.786 292.959 425.411 293.863L425.519 291.549H430.177V308.104C430.177 309.552 429.943 310.869 429.473 312.056C429.028 313.206 428.345 314.249 427.469 315.118C426.587 315.982 425.536 316.655 424.382 317.094C423.19 317.557 421.872 317.788 420.428 317.788C419.008 317.788 417.731 317.568 416.6 317.129C415.505 316.713 414.5 316.09 413.639 315.296C412.803 314.522 412.128 313.59 411.653 312.554L416.492 311.38C416.908 312.051 417.485 312.608 418.171 313C418.857 313.391 419.633 313.587 420.5 313.587C421.439 313.587 422.251 313.379 422.937 312.964C423.626 312.545 424.183 311.94 424.544 311.219C424.929 310.472 425.122 309.599 425.122 308.603V307.072C424.468 307.929 423.62 308.618 422.648 309.083C421.649 309.57 420.548 309.813 419.344 309.813V309.813ZM420.572 305.398C421.462 305.398 422.252 305.178 422.937 304.74C423.627 304.296 424.193 303.684 424.58 302.96C424.99 302.212 425.194 301.364 425.194 300.414C425.194 299.464 424.99 298.616 424.58 297.869C424.193 297.145 423.627 296.533 422.937 296.089C422.251 295.649 421.463 295.429 420.572 295.429C419.682 295.429 418.893 295.649 418.207 296.089C417.517 296.533 416.951 297.145 416.564 297.869C416.154 298.616 415.95 299.465 415.95 300.414C415.95 301.364 416.155 302.212 416.564 302.96C416.974 303.707 417.521 304.3 418.207 304.74C418.893 305.179 419.681 305.398 420.572 305.398ZM434.222 310.348V291.548H438.88L439.06 294.396C439.542 293.4 440.192 292.634 441.01 292.1C441.829 291.566 442.792 291.299 443.9 291.299C444.236 291.299 444.573 291.329 444.91 291.388C445.247 291.448 445.548 291.525 445.813 291.619L445.271 296.533C445.008 296.438 444.736 296.373 444.459 296.337C444.177 296.301 443.894 296.283 443.61 296.283C442.214 296.283 441.143 296.705 440.397 297.547C439.65 298.39 439.277 299.582 439.277 301.125V310.346H434.222V310.348Z" fill="white"/>
<g filter="url(#filter6_d_240_36)">
<path d="M497.255 484.682C497.255 495.269 489.44 504.39 478.857 504.39H327.939C317.355 504.39 308.153 495.269 308.153 484.682V112.847C308.153 102.26 317.355 94.52 327.939 94.52H345.386C349.075 94.52 350.437 94.098 350.661 98.775C350.777 101.205 351.668 103.093 353.096 104.656C354.522 106.19 356.486 107.45 358.742 108.157C360.273 108.637 361.978 109.071 363.603 109.071H443.354C444.98 109.071 446.684 108.537 448.215 108.058C450.473 107.351 452.435 106.171 453.862 104.666C455.29 103.131 456.181 101.322 456.296 98.893C456.519 94.217 457.883 94.52 461.572 94.52H478.857C489.44 94.52 497.255 102.26 497.255 112.847V484.682V484.682ZM391.66 96.338H415.297C416.301 96.338 417.116 96.96 417.116 97.853C417.116 98.746 416.301 99.369 415.297 99.369H391.66C390.655 99.369 389.842 98.746 389.842 97.853C389.842 96.96 390.655 96.338 391.66 96.338V96.338ZM427.723 96.86C427.723 97.5636 427.443 98.2384 426.946 98.736C426.448 99.2335 425.774 99.513 425.07 99.513C424.366 99.513 423.692 99.2335 423.194 98.736C422.697 98.2384 422.417 97.5636 422.417 96.86C422.417 96.1564 422.697 95.4816 423.194 94.984C423.692 94.4865 424.366 94.207 425.07 94.207C425.774 94.207 426.448 94.4865 426.946 94.984C427.443 95.4816 427.723 96.1564 427.723 96.86ZM508.771 181.828V114.042C508.771 96.898 494.878 83 477.739 83H326.961C309.284 83 294.819 97.47 294.819 115.155V139.994C294.337 139.994 293.874 140.186 293.533 140.526C293.192 140.867 293 141.33 293 141.812V154.545C293 155.028 293.192 155.49 293.533 155.832C293.874 156.173 294.336 156.365 294.819 156.365V171.522C294.336 171.522 293.874 171.714 293.533 172.055C293.192 172.397 293 172.859 293 173.342V200.626C293.001 201.108 293.192 201.57 293.533 201.911C293.874 202.252 294.337 202.444 294.819 202.444V211.539C294.337 211.539 293.874 211.731 293.533 212.072C293.192 212.413 293.001 212.875 293 213.357V240.642C293 241.125 293.192 241.587 293.533 241.929C293.874 242.27 294.336 242.462 294.819 242.462V486.078C294.819 503.818 309.328 518.335 327.062 518.335H477.739C494.806 518.335 508.771 504.365 508.771 487.292V232.152H509.376C509.615 232.152 509.852 232.105 510.072 232.014C510.293 231.922 510.494 231.788 510.663 231.62C510.832 231.451 510.966 231.25 511.057 231.029C511.149 230.809 511.196 230.572 511.196 230.333V183.648C511.196 182.643 510.382 181.828 509.376 181.828H508.771V181.828Z" fill="black"/>
</g>
<path d="M497.255 484.682C497.255 495.269 489.44 504.39 478.857 504.39H327.939C317.355 504.39 308.153 495.269 308.153 484.682V112.847C308.153 102.26 317.355 94.52 327.939 94.52H345.386C349.075 94.52 350.437 94.098 350.661 98.775C350.777 101.205 351.668 103.093 353.096 104.656C354.522 106.19 356.486 107.45 358.742 108.157C360.273 108.637 361.978 109.071 363.603 109.071H443.354C444.98 109.071 446.684 108.537 448.215 108.058C450.473 107.351 452.435 106.171 453.862 104.666C455.29 103.131 456.181 101.322 456.296 98.893C456.519 94.217 457.883 94.52 461.572 94.52H478.857C489.44 94.52 497.255 102.26 497.255 112.847V484.682V484.682ZM391.66 96.338H415.297C416.301 96.338 417.116 96.96 417.116 97.853C417.116 98.746 416.301 99.369 415.297 99.369H391.66C390.655 99.369 389.842 98.746 389.842 97.853C389.842 96.96 390.655 96.338 391.66 96.338V96.338ZM427.723 96.86C427.723 97.5636 427.443 98.2384 426.946 98.736C426.448 99.2335 425.774 99.513 425.07 99.513C424.366 99.513 423.692 99.2335 423.194 98.736C422.697 98.2384 422.417 97.5636 422.417 96.86C422.417 96.1564 422.697 95.4816 423.194 94.984C423.692 94.4865 424.366 94.207 425.07 94.207C425.774 94.207 426.448 94.4865 426.946 94.984C427.443 95.4816 427.723 96.1564 427.723 96.86ZM508.771 181.828V114.042C508.771 96.898 494.878 83 477.739 83H326.961C309.284 83 294.819 97.47 294.819 115.155V139.994C294.337 139.994 293.874 140.186 293.533 140.526C293.192 140.867 293 141.33 293 141.812V154.545C293 155.028 293.192 155.49 293.533 155.832C293.874 156.173 294.336 156.365 294.819 156.365V171.522C294.336 171.522 293.874 171.714 293.533 172.055C293.192 172.397 293 172.859 293 173.342V200.626C293.001 201.108 293.192 201.57 293.533 201.911C293.874 202.252 294.337 202.444 294.819 202.444V211.539C294.337 211.539 293.874 211.731 293.533 212.072C293.192 212.413 293.001 212.875 293 213.357V240.642C293 241.125 293.192 241.587 293.533 241.929C293.874 242.27 294.336 242.462 294.819 242.462V486.078C294.819 503.818 309.328 518.335 327.062 518.335H477.739C494.806 518.335 508.771 504.365 508.771 487.292V232.152H509.376C509.615 232.152 509.852 232.105 510.072 232.014C510.293 231.922 510.494 231.788 510.663 231.62C510.832 231.451 510.966 231.25 511.057 231.029C511.149 230.809 511.196 230.572 511.196 230.333V183.648C511.196 182.643 510.382 181.828 509.376 181.828H508.771V181.828Z" fill="#1D1D25"/>
<path fill-rule="evenodd" clip-rule="evenodd" d="M415.297 96.338H391.66C390.655 96.338 389.841 96.962 389.841 97.855C389.841 98.747 390.655 99.37 391.661 99.37H415.297C416.302 99.37 417.117 98.747 417.117 97.855C417.117 96.962 416.302 96.338 415.297 96.338V96.338ZM425.071 94.208C424.367 94.2083 423.693 94.488 423.195 94.9858C422.698 95.4835 422.419 96.1584 422.419 96.862C422.419 97.5656 422.699 98.2403 423.197 98.7377C423.695 99.235 424.369 99.5143 425.073 99.514C425.777 99.5137 426.451 99.234 426.949 98.7363C427.446 98.2385 427.725 97.5636 427.725 96.86C427.725 96.1564 427.445 95.4817 426.947 94.9843C426.45 94.487 425.775 94.2077 425.071 94.208" fill="black"/>
<defs>
<filter id="filter0_d_240_36" x="0" y="0" width="298.196" height="515.335" filterUnits="userSpaceOnUse" color-interpolation-filters="sRGB">
<feFlood flood-opacity="0" result="BackgroundImageFix"/>
<feColorMatrix in="SourceAlpha" type="matrix" values="0 0 0 0 0 0 0 0 0 0 0 0 0 0 0 0 0 0 127 0" result="hardAlpha"/>
<feOffset dy="20"/>
<feGaussianBlur stdDeviation="20"/>
<feColorMatrix type="matrix" values="0 0 0 0 0.421822 0 0 0 0 0.554338 0 0 0 0 0.89371 0 0 0 0.243444 0"/>
<feBlend mode="normal" in2="BackgroundImageFix" result="effect1_dropShadow_240_36"/>
<feBlend mode="normal" in="SourceGraphic" in2="effect1_dropShadow_240_36" result="shape"/>
</filter>
<filter id="filter1_d_240_36" x="299.156" y="130.018" width="206.649" height="98.441" filterUnits="userSpaceOnUse" color-interpolation-filters="sRGB">
<feFlood flood-opacity="0" result="BackgroundImageFix"/>
<feColorMatrix in="SourceAlpha" type="matrix" values="0 0 0 0 0 0 0 0 0 0 0 0 0 0 0 0 0 0 127 0" result="hardAlpha"/>
<feOffset dy="10"/>
<feGaussianBlur stdDeviation="10"/>
<feColorMatrix type="matrix" values="0 0 0 0 0.421822 0 0 0 0 0.554338 0 0 0 0 0.89371 0 0 0 0.243444 0"/>
<feBlend mode="normal" in2="BackgroundImageFix" result="effect1_dropShadow_240_36"/>
<feBlend mode="normal" in="SourceGraphic" in2="effect1_dropShadow_240_36" result="shape"/>
</filter>
<filter id="filter2_d_240_36" x="299.156" y="202.415" width="206.649" height="98.441" filterUnits="userSpaceOnUse" color-interpolation-filters="sRGB">
<feFlood flood-opacity="0" result="BackgroundImageFix"/>
<feColorMatrix in="SourceAlpha" type="matrix" values="0 0 0 0 0 0 0 0 0 0 0 0 0 0 0 0 0 0 127 0" result="hardAlpha"/>
<feOffset dy="10"/>
<feGaussianBlur stdDeviation="10"/>
<feColorMatrix type="matrix" values="0 0 0 0 0.421822 0 0 0 0 0.554338 0 0 0 0 0.89371 0 0 0 0.243444 0"/>
<feBlend mode="normal" in2="BackgroundImageFix" result="effect1_dropShadow_240_36"/>
<feBlend mode="normal" in="SourceGraphic" in2="effect1_dropShadow_240_36" result="shape"/>
</filter>
<filter id="filter3_d_240_36" x="299.156" y="274.812" width="206.649" height="98.441" filterUnits="userSpaceOnUse" color-interpolation-filters="sRGB">
<feFlood flood-opacity="0" result="BackgroundImageFix"/>
<feColorMatrix in="SourceAlpha" type="matrix" values="0 0 0 0 0 0 0 0 0 0 0 0 0 0 0 0 0 0 127 0" result="hardAlpha"/>
<feOffset dy="10"/>
<feGaussianBlur stdDeviation="10"/>
<feColorMatrix type="matrix" values="0 0 0 0 0.421822 0 0 0 0 0.554338 0 0 0 0 0.89371 0 0 0 0.243444 0"/>
<feBlend mode="normal" in2="BackgroundImageFix" result="effect1_dropShadow_240_36"/>
<feBlend mode="normal" in="SourceGraphic" in2="effect1_dropShadow_240_36" result="shape"/>
</filter>
<filter id="filter4_d_240_36" x="299.156" y="347.21" width="206.649" height="98.441" filterUnits="userSpaceOnUse" color-interpolation-filters="sRGB">
<feFlood flood-opacity="0" result="BackgroundImageFix"/>
<feColorMatrix in="SourceAlpha" type="matrix" values="0 0 0 0 0 0 0 0 0 0 0 0 0 0 0 0 0 0 127 0" result="hardAlpha"/>
<feOffset dy="10"/>
<feGaussianBlur stdDeviation="10"/>
<feColorMatrix type="matrix" values="0 0 0 0 0.421822 0 0 0 0 0.554338 0 0 0 0 0.89371 0 0 0 0.243444 0"/>
<feBlend mode="normal" in2="BackgroundImageFix" result="effect1_dropShadow_240_36"/>
<feBlend mode="normal" in="SourceGraphic" in2="effect1_dropShadow_240_36" result="shape"/>
</filter>
<filter id="filter5_d_240_36" x="299.156" y="419.607" width="206.649" height="98.441" filterUnits="userSpaceOnUse" color-interpolation-filters="sRGB">
<feFlood flood-opacity="0" result="BackgroundImageFix"/>
<feColorMatrix in="SourceAlpha" type="matrix" values="0 0 0 0 0 0 0 0 0 0 0 0 0 0 0 0 0 0 127 0" result="hardAlpha"/>
<feOffset dy="10"/>
<feGaussianBlur stdDeviation="10"/>
<feColorMatrix type="matrix" values="0 0 0 0 0.421822 0 0 0 0 0.554338 0 0 0 0 0.89371 0 0 0 0.243444 0"/>
<feBlend mode="normal" in2="BackgroundImageFix" result="effect1_dropShadow_240_36"/>
<feBlend mode="normal" in="SourceGraphic" in2="effect1_dropShadow_240_36" result="shape"/>
</filter>
<filter id="filter6_d_240_36" x="253" y="63" width="298.196" height="515.335" filterUnits="userSpaceOnUse" color-interpolation-filters="sRGB">
<feFlood flood-opacity="0" result="BackgroundImageFix"/>
<feColorMatrix in="SourceAlpha" type="matrix" values="0 0 0 0 0 0 0 0 0 0 0 0 0 0 0 0 0 0 127 0" result="hardAlpha"/>
<feOffset dy="20"/>
<feGaussianBlur stdDeviation="20"/>
<feColorMatrix type="matrix" values="0 0 0 0 0.421822 0 0 0 0 0.554338 0 0 0 0 0.89371 0 0 0 0.243444 0"/>
<feBlend mode="normal" in2="BackgroundImageFix" result="effect1_dropShadow_240_36"/>
<feBlend mode="normal" in="SourceGraphic" in2="effect1_dropShadow_240_36" result="shape"/>
</filter>
<linearGradient id="paint0_linear_240_36" x1="126.09" y1="24.788" x2="300.547" y2="386.536" gradientUnits="userSpaceOnUse">
<stop stop-color="#FF8F71"/>
<stop offset="1" stop-color="#FF3E55"/>
</linearGradient>
<linearGradient id="paint1_linear_240_36" x1="379.09" y1="87.788" x2="553.547" y2="449.536" gradientUnits="userSpaceOnUse">
<stop stop-color="#FF8F71"/>
<stop offset="1" stop-color="#FF3E55"/>
</linearGradient>
<linearGradient id="paint2_linear_240_36" x1="307.813" y1="124.936" x2="476.179" y2="190.093" gradientUnits="userSpaceOnUse">
<stop stop-color="#FF8F71"/>
<stop offset="1" stop-color="#FF3E55"/>
</linearGradient>
</defs>
</svg>
